<?xml version="1.0" encoding="utf-8"?>
<!-- Generator: Adobe Illustrator 28.2.0, SVG Export Plug-In . SVG Version: 6.00 Build 0)  -->
<svg version="1.1" xmlns="http://www.w3.org/2000/svg" xmlns:xlink="http://www.w3.org/1999/xlink" x="0px" y="0px"
	 viewBox="0 0 500 500" style="enable-background:new 0 0 500 500;" xml:space="preserve">
<style type="text/css">
	.st0{display:none;}
	.st1{display:inline;fill:#F0F6FA;}
	.st2{font-family:'SourceSansPro-Regular';}
	.st3{font-size:34.1786px;}
	.st4{display:inline;}
	.st5{fill:#113147;}
	
		.st6{fill:none;stroke:#113147;stroke-width:2;stroke-linecap:round;stroke-linejoin:round;stroke-miterlimit:10;stroke-dasharray:1,4;}
	.st7{fill:#D8E6F0;}
	.st8{fill:#F0F6FA;}
	.st9{opacity:0.2;fill:#4E83A6;}
	.st10{opacity:0.2;}
	.st11{fill:#4E83A6;}
	.st12{fill:#2CAECF;}
	.st13{opacity:0.6;fill:#4E83A6;}
	.st14{fill:#D0E5F2;}
	.st15{opacity:0.24;}
	.st16{fill:none;stroke:#FAFAFA;stroke-width:0.5;stroke-miterlimit:10;}
	.st17{fill:none;stroke:#F0F9FA;stroke-miterlimit:10;}
	.st18{fill:#FFC100;}
	.st19{opacity:0.6;fill:#FFFFFF;}
	.st20{fill:#29CDFF;}
	.st21{fill:#FF3A1C;}
	.st22{fill:none;stroke:#113147;stroke-width:1.5;stroke-linecap:round;stroke-linejoin:round;}
	.st23{fill:none;stroke:#113147;stroke-width:1.5;stroke-linecap:round;stroke-linejoin:round;stroke-dasharray:0.9609,3.8435;}
	.st24{fill:none;stroke:#113147;stroke-width:1.5;stroke-linecap:round;stroke-linejoin:round;stroke-dasharray:1.0274,4.1096;}
	.st25{fill:none;stroke:#113147;stroke-width:1.5;stroke-linecap:round;stroke-linejoin:round;stroke-dasharray:0.9861,3.9444;}
	.st26{fill:none;stroke:#113147;stroke-width:1.5;stroke-linecap:round;stroke-linejoin:round;stroke-dasharray:1.0422,4.1689;}
	.st27{fill:none;stroke:#113147;stroke-width:1.5;stroke-linecap:round;stroke-linejoin:round;stroke-dasharray:1.0044,4.0174;}
	.st28{fill:none;stroke:#113147;stroke-width:1.5;stroke-linecap:round;stroke-linejoin:round;stroke-dasharray:1.0861,4.3444;}
	.st29{fill:none;stroke:#113147;stroke-width:1.5;stroke-linecap:round;stroke-linejoin:round;stroke-dasharray:0.974,3.8961;}
	.st30{fill:none;stroke:#113147;stroke-width:1.5;stroke-linecap:round;stroke-linejoin:round;stroke-dasharray:1.0527,4.2107;}
	.st31{fill:none;stroke:#113147;stroke-width:1.5;stroke-linecap:round;stroke-linejoin:round;stroke-dasharray:0.9917,3.9667;}
	.st32{fill:none;stroke:#113147;stroke-width:1.5;stroke-linecap:round;stroke-linejoin:round;stroke-dasharray:1.0536,4.2144;}
	.st33{fill:none;stroke:#113147;stroke-width:1.5;stroke-linecap:round;stroke-linejoin:round;stroke-dasharray:0.9755,3.9019;}
	.st34{fill:none;stroke:#113147;stroke-width:1.5;stroke-linecap:round;stroke-linejoin:round;stroke-dasharray:1.0578,4.2314;}
	.st35{fill:none;stroke:#113147;stroke-width:1.5;stroke-linecap:round;stroke-linejoin:round;stroke-dasharray:0.9492,3.7969;}
	.st36{fill:none;stroke:#113147;stroke-width:1.5;stroke-linecap:round;stroke-linejoin:round;stroke-dasharray:0.999,3.996;}
	.st37{fill:none;stroke:#113147;stroke-width:1.5;stroke-linecap:round;stroke-linejoin:round;stroke-dasharray:0.994,3.976;}
	.st38{fill:none;stroke:#113147;stroke-width:1.5;stroke-linecap:round;stroke-linejoin:round;stroke-dasharray:1.0218,4.0871;}
	.st39{fill:#FFFFFF;}
</style>
<g id="BACKGROUND">
</g>
<g id="OBJECTS">
	<g class="st0">
		<text transform="matrix(0.9619 0 0 1 163.4531 67.1279)" class="st1 st2 st3">WEB DESIGN</text>
		<g class="st4">
			<g>
				<g>
					<path class="st5" d="M358.81,65c-0.27,0-0.54-0.1-0.74-0.31c-0.41-0.41-0.41-1.08,0-1.49l6.17-6.17l-6.17-6.17
						c-0.41-0.41-0.41-1.08,0-1.49c0.41-0.41,1.08-0.41,1.49,0l6.91,6.91c0.2,0.2,0.31,0.46,0.31,0.74c0,0.28-0.11,0.55-0.31,0.74
						l-6.91,6.91C359.35,64.9,359.08,65,358.81,65z"/>
				</g>
				<line class="st6" x1="344.22" y1="57.04" x2="357.32" y2="57.04"/>
			</g>
			<g>
				<g>
					<path class="st5" d="M141.19,65c0.27,0,0.54-0.1,0.74-0.31c0.41-0.41,0.41-1.08,0-1.49l-6.17-6.17l6.17-6.17
						c0.41-0.41,0.41-1.08,0-1.49c-0.41-0.41-1.08-0.41-1.49,0l-6.91,6.91c-0.2,0.2-0.31,0.46-0.31,0.74c0,0.28,0.11,0.55,0.31,0.74
						l6.91,6.91C140.65,64.9,140.92,65,141.19,65z"/>
				</g>
				<line class="st6" x1="155.78" y1="57.04" x2="142.68" y2="57.04"/>
			</g>
		</g>
	</g>
	<g>
		<g>
			<g>
				<g>
					<path class="st7" d="M145.74,329.59V203.83c0-3.68,2.98-6.66,6.65-6.66h195.2c3.68,0,6.65,2.98,6.65,6.66v125.76H145.74z"/>
					<g>
						<path class="st8" d="M354.66,333.79H145.34c-5.91,0-10.71-5.77-10.71-12.89h230.74C365.37,328.03,360.58,333.79,354.66,333.79
							z"/>
						<path class="st9" d="M228.61,326.92c0,1.08,0.88,1.96,1.96,1.96h38.86c1.08,0,1.96-0.88,1.96-1.96l0,0
							c0-1.08-0.88-1.96-1.96-1.96h-38.86C229.49,324.96,228.61,325.84,228.61,326.92L228.61,326.92z"/>
						<g class="st10">
							<path class="st11" d="M178.33,326.92c0,1.48,1.2,2.67,2.67,2.67s2.67-1.2,2.67-2.67c0-1.48-1.2-2.67-2.67-2.67
								S178.33,325.44,178.33,326.92z"/>
							<path class="st11" d="M166.25,326.92c0,1.48,1.2,2.67,2.67,2.67c1.47,0,2.67-1.2,2.67-2.67c0-1.48-1.2-2.67-2.67-2.67
								C167.44,324.25,166.25,325.44,166.25,326.92z"/>
							<path class="st11" d="M154.16,326.92c0,1.48,1.2,2.67,2.67,2.67s2.67-1.2,2.67-2.67c0-1.48-1.2-2.67-2.67-2.67
								S154.16,325.44,154.16,326.92z"/>
						</g>
					</g>
					<rect x="152.64" y="208.23" class="st12" width="194.72" height="106.97"/>
				</g>
				<ellipse class="st13" cx="250" cy="202.69" rx="3.47" ry="3.48"/>
				<path class="st14" d="M248.68,202.69c0,0.73,0.59,1.32,1.32,1.32c0.73,0,1.32-0.59,1.32-1.32c0-0.73-0.59-1.32-1.32-1.32
					C249.27,201.37,248.68,201.96,248.68,202.69z"/>
				<g class="st15">
					<g>
						<line class="st16" x1="337.93" y1="208.23" x2="337.93" y2="315.2"/>
						<line class="st16" x1="327.58" y1="208.23" x2="327.58" y2="315.2"/>
						<line class="st16" x1="317.24" y1="208.23" x2="317.24" y2="315.2"/>
						<line class="st16" x1="306.89" y1="208.23" x2="306.89" y2="315.2"/>
						<line class="st16" x1="296.55" y1="208.23" x2="296.55" y2="315.2"/>
						<line class="st16" x1="286.21" y1="208.23" x2="286.21" y2="315.2"/>
						<line class="st16" x1="275.86" y1="208.23" x2="275.86" y2="315.2"/>
						<line class="st16" x1="265.52" y1="208.23" x2="265.52" y2="315.2"/>
						<line class="st16" x1="255.17" y1="208.23" x2="255.17" y2="315.2"/>
						<line class="st16" x1="244.83" y1="208.23" x2="244.83" y2="315.2"/>
						<line class="st16" x1="234.48" y1="208.23" x2="234.48" y2="315.2"/>
						<line class="st16" x1="224.14" y1="208.23" x2="224.14" y2="315.2"/>
						<line class="st16" x1="213.79" y1="208.23" x2="213.79" y2="315.2"/>
						<line class="st16" x1="203.45" y1="208.23" x2="203.45" y2="315.2"/>
						<line class="st16" x1="193.11" y1="208.23" x2="193.11" y2="315.2"/>
						<line class="st16" x1="182.76" y1="208.23" x2="182.76" y2="315.2"/>
						<line class="st16" x1="172.42" y1="208.23" x2="172.42" y2="315.2"/>
						<line class="st16" x1="162.07" y1="208.23" x2="162.07" y2="315.2"/>
					</g>
					<g>
						<line class="st16" x1="347.22" y1="306.22" x2="152.78" y2="306.22"/>
						<line class="st16" x1="347.22" y1="296.33" x2="152.78" y2="296.33"/>
						<line class="st16" x1="347.22" y1="286.44" x2="152.78" y2="286.44"/>
						<line class="st16" x1="347.22" y1="276.55" x2="152.78" y2="276.55"/>
						<line class="st16" x1="347.22" y1="266.66" x2="152.78" y2="266.66"/>
						<line class="st16" x1="347.22" y1="256.77" x2="152.78" y2="256.77"/>
						<line class="st16" x1="347.22" y1="246.88" x2="152.78" y2="246.88"/>
						<line class="st16" x1="347.22" y1="236.98" x2="152.78" y2="236.98"/>
						<line class="st16" x1="347.22" y1="227.09" x2="152.78" y2="227.09"/>
						<line class="st16" x1="347.22" y1="217.2" x2="152.78" y2="217.2"/>
					</g>
				</g>
				<g>
					<rect x="182.76" y="217.2" class="st17" width="134.48" height="9.89"/>
					<rect x="182.76" y="296.33" class="st17" width="134.48" height="9.89"/>
					<rect x="182.76" y="227.09" class="st17" width="134.48" height="39.57"/>
					<g>
						<rect x="275.87" y="266.66" class="st17" width="41.37" height="29.67"/>
						<rect x="224.14" y="266.66" class="st17" width="51.73" height="29.67"/>
						<rect x="182.76" y="266.66" class="st17" width="41.38" height="29.67"/>
					</g>
				</g>
			</g>
			<g>
				<g>
					<g>
						<rect x="251.09" y="243.21" class="st8" width="24.81" height="1.76"/>
						<rect x="277.35" y="243.21" class="st8" width="4.55" height="1.76"/>
						<rect x="285.1" y="243.21" class="st8" width="11.48" height="1.76"/>
					</g>
					<g>
						<rect x="251.09" y="239.96" class="st8" width="7.86" height="1.76"/>
						<rect x="261.01" y="239.96" class="st8" width="32.36" height="1.76"/>
						<rect x="295.54" y="239.96" class="st8" width="9.61" height="1.76"/>
					</g>
					<g>
						<rect x="251.09" y="236.7" class="st8" width="13.03" height="1.76"/>
						<rect x="265.66" y="236.7" class="st8" width="4.86" height="1.76"/>
						<rect x="271.97" y="236.7" class="st8" width="9.3" height="1.76"/>
					</g>
				</g>
				<g>
					<path class="st8" d="M248.89,237.45c0,0.37-0.3,0.67-0.67,0.67c-0.37,0-0.67-0.3-0.67-0.67s0.3-0.67,0.67-0.67
						C248.59,236.79,248.89,237.08,248.89,237.45z"/>
					<path class="st8" d="M248.89,240.85c0,0.37-0.3,0.67-0.67,0.67c-0.37,0-0.67-0.3-0.67-0.67s0.3-0.67,0.67-0.67
						C248.59,240.18,248.89,240.48,248.89,240.85z"/>
					<path class="st8" d="M248.89,244.25c0,0.37-0.3,0.67-0.67,0.67c-0.37,0-0.67-0.3-0.67-0.67s0.3-0.67,0.67-0.67
						C248.59,243.58,248.89,243.88,248.89,244.25z"/>
				</g>
				<g>
					<g>
						<g>
							<g>
								<rect x="251.09" y="255.73" class="st8" width="14.47" height="1.76"/>
								<rect x="267.42" y="255.73" class="st8" width="19.23" height="1.76"/>
								<rect x="288.93" y="255.73" class="st8" width="8.27" height="1.76"/>
							</g>
							<g>
								<rect x="251.09" y="252.58" class="st8" width="12.2" height="1.76"/>
								<rect x="265" y="252.58" class="st8" width="14.68" height="1.76"/>
								<rect x="281.28" y="252.58" class="st8" width="8.58" height="1.76"/>
							</g>
						</g>
						<g>
							<rect x="251.09" y="249.43" class="st8" width="4.24" height="1.76"/>
							<rect x="256.98" y="249.43" class="st8" width="12.1" height="1.76"/>
						</g>
					</g>
					<g>
						<path class="st8" d="M248.89,250.09c0,0.37-0.3,0.67-0.67,0.67c-0.37,0-0.67-0.3-0.67-0.67s0.3-0.67,0.67-0.67
							C248.59,249.42,248.89,249.72,248.89,250.09z"/>
						<path class="st8" d="M248.89,253.49c0,0.37-0.3,0.67-0.67,0.67c-0.37,0-0.67-0.3-0.67-0.67c0-0.37,0.3-0.67,0.67-0.67
							C248.59,252.82,248.89,253.12,248.89,253.49z"/>
						<path class="st8" d="M248.89,256.88c0,0.37-0.3,0.67-0.67,0.67c-0.37,0-0.67-0.3-0.67-0.67c0-0.37,0.3-0.67,0.67-0.67
							C248.59,256.21,248.89,256.51,248.89,256.88z"/>
					</g>
				</g>
			</g>
			<g>
				<g>
					<g>
						<rect x="192.4" y="283.96" class="st8" width="12.39" height="1.76"/>
						<rect x="205.51" y="283.96" class="st8" width="2.27" height="1.76"/>
						<rect x="209.39" y="283.96" class="st8" width="5.73" height="1.76"/>
					</g>
					<g>
						<rect x="192.4" y="280.7" class="st8" width="3.92" height="1.76"/>
						<rect x="197.36" y="280.7" class="st8" width="16.16" height="1.76"/>
						<rect x="214.6" y="280.7" class="st8" width="4.8" height="1.76"/>
					</g>
					<g>
						<rect x="192.4" y="277.44" class="st8" width="6.5" height="1.76"/>
						<rect x="199.68" y="277.44" class="st8" width="2.43" height="1.76"/>
						<rect x="202.83" y="277.44" class="st8" width="4.65" height="1.76"/>
					</g>
				</g>
				<g>
					<path class="st8" d="M190.2,278.2c0,0.37-0.3,0.67-0.67,0.67s-0.67-0.3-0.67-0.67c0-0.37,0.3-0.67,0.67-0.67
						S190.2,277.83,190.2,278.2z"/>
					<path class="st8" d="M190.2,281.59c0,0.37-0.3,0.67-0.67,0.67s-0.67-0.3-0.67-0.67c0-0.37,0.3-0.67,0.67-0.67
						S190.2,281.22,190.2,281.59z"/>
					<circle class="st8" cx="189.54" cy="284.99" r="0.67"/>
				</g>
			</g>
		</g>
		<g>
			<g>
				<rect x="254.24" y="167.38" class="st5" width="152.13" height="15.61"/>
				<path class="st18" d="M269.24,177.28c0,0.92-0.75,1.67-1.67,1.67h-4.21c-0.92,0-1.67-0.75-1.67-1.67v-4.21
					c0-0.92,0.75-1.67,1.67-1.67h4.21c0.92,0,1.67,0.75,1.67,1.67V177.28z"/>
				<path class="st19" d="M298.95,174.12c0,0.18-0.15,0.33-0.33,0.33h-26.68c-0.18,0-0.33-0.15-0.33-0.33l0,0
					c0-0.18,0.15-0.33,0.33-0.33h26.68C298.81,173.78,298.95,173.93,298.95,174.12L298.95,174.12z"/>
				<path class="st19" d="M289.27,176.24c0,0.18-0.15,0.33-0.33,0.33h-16.99c-0.18,0-0.33-0.15-0.33-0.33l0,0
					c0-0.18,0.15-0.33,0.33-0.33h16.99C289.12,175.91,289.27,176.06,289.27,176.24L289.27,176.24z"/>
				<g>
					<path class="st20" d="M378.61,175.7c0,1.52-1.23,2.75-2.75,2.75c-1.52,0-2.75-1.23-2.75-2.75s1.23-2.75,2.75-2.75
						C377.38,172.95,378.61,174.18,378.61,175.7z"/>
					<path class="st18" d="M387.07,175.7c0,1.52-1.23,2.75-2.75,2.75c-1.52,0-2.75-1.23-2.75-2.75s1.23-2.75,2.75-2.75
						C385.84,172.95,387.07,174.18,387.07,175.7z"/>
					<path class="st21" d="M395.53,175.7c0,1.52-1.23,2.75-2.75,2.75c-1.52,0-2.75-1.23-2.75-2.75s1.23-2.75,2.75-2.75
						C394.3,172.95,395.53,174.18,395.53,175.7z"/>
				</g>
			</g>
			<g>
				<g>
					<rect x="92.59" y="348.33" class="st5" width="152.13" height="25.21"/>
				</g>
				<path class="st20" d="M116.02,361.58c0,3.37-2.73,6.11-6.11,6.11c-3.37,0-6.11-2.73-6.11-6.11c0-3.37,2.73-6.11,6.11-6.11
					C113.29,355.47,116.02,358.21,116.02,361.58z"/>
				<path class="st21" d="M132.85,361.58c0,3.37-2.73,6.11-6.11,6.11c-3.37,0-6.11-2.73-6.11-6.11c0-3.37,2.73-6.11,6.11-6.11
					C130.11,355.47,132.85,358.21,132.85,361.58z"/>
				<path class="st18" d="M149.68,361.58c0,3.37-2.73,6.11-6.11,6.11c-3.37,0-6.11-2.73-6.11-6.11c0-3.37,2.73-6.11,6.11-6.11
					C146.94,355.47,149.68,358.21,149.68,361.58z"/>
				<g>
					<g>
						<rect x="207.85" y="361.3" class="st18" width="6.38" height="6.38"/>
						<rect x="217.67" y="361.3" class="st21" width="6.38" height="6.38"/>
						<rect x="227.49" y="361.3" class="st20" width="6.38" height="6.38"/>
					</g>
					<path class="st19" d="M234.07,355.93c0,0.22-0.18,0.4-0.4,0.4h-25.41c-0.22,0-0.4-0.18-0.4-0.4l0,0c0-0.22,0.18-0.4,0.4-0.4
						h25.41C233.89,355.53,234.07,355.71,234.07,355.93L234.07,355.93z"/>
					<path class="st19" d="M234.07,357.91c0,0.22-0.18,0.4-0.4,0.4h-25.41c-0.22,0-0.4-0.18-0.4-0.4l0,0c0-0.22,0.18-0.4,0.4-0.4
						h25.41C233.89,357.51,234.07,357.69,234.07,357.91L234.07,357.91z"/>
				</g>
			</g>
			<path class="st5" d="M288.72,221.97c0,1.39-1.13,2.51-2.51,2.51s-2.51-1.13-2.51-2.51c0-1.39,1.13-2.51,2.51-2.51
				S288.72,220.58,288.72,221.97z"/>
			<path class="st5" d="M237,246.73c0,1.39-1.13,2.51-2.51,2.51c-1.39,0-2.51-1.13-2.51-2.51c0-1.39,1.13-2.51,2.51-2.51
				C235.87,244.22,237,245.34,237,246.73z"/>
			<path class="st5" d="M252.98,281.58c0,1.39-1.13,2.51-2.51,2.51c-1.39,0-2.51-1.13-2.51-2.51c0-1.39,1.13-2.51,2.51-2.51
				C251.86,279.06,252.98,280.19,252.98,281.58z"/>
			<path class="st5" d="M216.53,301.71c0,1.39-1.13,2.51-2.51,2.51c-1.39,0-2.51-1.13-2.51-2.51s1.13-2.51,2.51-2.51
				C215.4,299.2,216.53,300.32,216.53,301.71z"/>
			<g>
				<g>
					<line class="st22" x1="286.21" y1="221.97" x2="286.71" y2="221.97"/>
					<line class="st23" x1="290.55" y1="221.97" x2="331.87" y2="221.97"/>
					<polyline class="st22" points="333.79,221.97 334.29,221.97 334.29,221.47 					"/>
					<line class="st24" x1="334.29" y1="217.36" x2="334.29" y2="183.45"/>
					<line class="st22" x1="334.29" y1="181.4" x2="334.29" y2="180.9"/>
				</g>
			</g>
			<g>
				<g>
					<line class="st22" x1="240.6" y1="139.17" x2="241.1" y2="139.17"/>
					<line class="st25" x1="245.04" y1="139.17" x2="331.82" y2="139.17"/>
					<polyline class="st22" points="333.79,139.17 334.29,139.17 334.29,139.67 					"/>
					<line class="st26" x1="334.29" y1="143.84" x2="334.29" y2="167.81"/>
					<line class="st22" x1="334.29" y1="169.89" x2="334.29" y2="170.39"/>
				</g>
			</g>
			<g>
				<g>
					<line class="st22" x1="250.47" y1="281.58" x2="250.97" y2="281.58"/>
					<line class="st27" x1="254.99" y1="281.58" x2="368.48" y2="281.58"/>
					<polyline class="st22" points="370.49,281.58 370.99,281.58 370.99,282.08 					"/>
					<line class="st28" x1="370.99" y1="286.42" x2="370.99" y2="300.54"/>
					<line class="st22" x1="370.99" y1="302.71" x2="370.99" y2="303.21"/>
				</g>
			</g>
			<g>
				<g>
					<line class="st22" x1="346.61" y1="392.87" x2="347.11" y2="392.87"/>
					<line class="st29" x1="351.01" y1="392.87" x2="368.54" y2="392.87"/>
					<polyline class="st22" points="370.49,392.87 370.99,392.87 370.99,392.37 					"/>
					<line class="st30" x1="370.99" y1="388.16" x2="370.99" y2="353.42"/>
					<line class="st22" x1="370.99" y1="351.32" x2="370.99" y2="350.82"/>
				</g>
			</g>
			<g>
				<g>
					<line class="st22" x1="214.24" y1="301.71" x2="213.74" y2="301.71"/>
					<line class="st31" x1="209.77" y1="301.71" x2="177.05" y2="301.71"/>
					<polyline class="st22" points="175.06,301.71 174.56,301.71 174.56,302.21 					"/>
					<line class="st32" x1="174.56" y1="306.42" x2="174.56" y2="346.46"/>
					<line class="st22" x1="174.56" y1="348.57" x2="174.56" y2="349.07"/>
				</g>
			</g>
			<g>
				<g>
					<line class="st22" x1="262.38" y1="392.87" x2="261.88" y2="392.87"/>
					<line class="st33" x1="257.98" y1="392.87" x2="177.01" y2="392.87"/>
					<polyline class="st22" points="175.06,392.87 174.56,392.87 174.56,392.37 					"/>
					<line class="st34" x1="174.56" y1="388.14" x2="174.56" y2="374.39"/>
					<line class="st22" x1="174.56" y1="372.27" x2="174.56" y2="371.77"/>
				</g>
			</g>
			<g>
				<g>
					<line class="st22" x1="114.92" y1="227.84" x2="114.92" y2="228.34"/>
					<line class="st35" x1="114.92" y1="232.14" x2="114.92" y2="244.48"/>
					<polyline class="st22" points="114.92,246.38 114.92,246.88 115.42,246.88 					"/>
					<line class="st36" x1="119.41" y1="246.88" x2="227.31" y2="246.88"/>
					<line class="st22" x1="229.3" y1="246.88" x2="229.8" y2="246.88"/>
				</g>
			</g>
			<g>
				<g>
					<line class="st22" x1="114.92" y1="198.56" x2="114.92" y2="198.06"/>
					<line class="st37" x1="114.92" y1="194.08" x2="114.92" y2="141.4"/>
					<polyline class="st22" points="114.92,139.41 114.92,138.91 115.42,138.91 					"/>
					<line class="st38" x1="119.51" y1="138.91" x2="153.22" y2="138.91"/>
					<line class="st22" x1="155.27" y1="138.91" x2="155.77" y2="138.91"/>
				</g>
			</g>
			<rect x="256.6" y="370.16" class="st5" width="96.11" height="42.37"/>
			<rect x="149.88" y="119.45" class="st5" width="96.11" height="42.37"/>
			<g>
				<g>
					<rect x="166.55" y="142.99" class="st20" width="5.97" height="2.11"/>
					<g>
						<g>
							<rect x="166.55" y="151.2" class="st18" width="15.67" height="2.11"/>
							<rect x="184.58" y="151.2" class="st21" width="24.63" height="2.11"/>
							<rect x="211.83" y="151.2" class="st20" width="20.9" height="2.11"/>
						</g>
						<g>
							<rect x="166.55" y="147.09" class="st21" width="10.2" height="2.11"/>
							<rect x="179.36" y="147.09" class="st20" width="19.16" height="2.11"/>
							<rect x="201" y="147.09" class="st18" width="11.32" height="2.11"/>
						</g>
					</g>
					<rect x="174.51" y="142.99" class="st21" width="14.68" height="2.11"/>
				</g>
				<g>
					<g>
						<rect x="166.55" y="135.86" class="st21" width="34.08" height="2.11"/>
						<rect x="203.24" y="135.86" class="st20" width="7.71" height="2.11"/>
					</g>
					<g>
						<rect x="166.55" y="131.91" class="st18" width="10.2" height="2.11"/>
						<rect x="179.36" y="131.91" class="st21" width="40.43" height="2.11"/>
						<rect x="221.03" y="131.91" class="st20" width="17.42" height="2.11"/>
					</g>
					<g>
						<rect x="166.55" y="127.96" class="st21" width="14.93" height="2.11"/>
						<rect x="184.09" y="127.96" class="st20" width="6.34" height="2.11"/>
						<rect x="192.05" y="127.96" class="st18" width="13.81" height="2.11"/>
					</g>
				</g>
				<g>
					<path class="st8" d="M159.04,128.86c0,0.44-0.36,0.8-0.8,0.8c-0.44,0-0.8-0.36-0.8-0.8c0-0.44,0.36-0.8,0.8-0.8
						C158.68,128.06,159.04,128.42,159.04,128.86z"/>
					<path class="st8" d="M159.04,132.95c0,0.44-0.36,0.8-0.8,0.8c-0.44,0-0.8-0.36-0.8-0.8c0-0.44,0.36-0.8,0.8-0.8
						C158.68,132.14,159.04,132.5,159.04,132.95z"/>
					<path class="st8" d="M159.04,137.03c0,0.44-0.36,0.8-0.8,0.8c-0.44,0-0.8-0.36-0.8-0.8c0-0.44,0.36-0.8,0.8-0.8
						C158.68,136.23,159.04,136.59,159.04,137.03z"/>
				</g>
				<g>
					<path class="st8" d="M159.04,144.07c0,0.44-0.36,0.8-0.8,0.8c-0.44,0-0.8-0.36-0.8-0.8s0.36-0.8,0.8-0.8
						C158.68,143.26,159.04,143.62,159.04,144.07z"/>
					<path class="st8" d="M159.04,148.15c0,0.44-0.36,0.8-0.8,0.8c-0.44,0-0.8-0.36-0.8-0.8c0-0.44,0.36-0.8,0.8-0.8
						C158.68,147.35,159.04,147.71,159.04,148.15z"/>
					<path class="st8" d="M159.04,152.24c0,0.44-0.36,0.8-0.8,0.8c-0.44,0-0.8-0.36-0.8-0.8s0.36-0.8,0.8-0.8
						C158.68,151.43,159.04,151.79,159.04,152.24z"/>
				</g>
			</g>
			<g>
				<g>
					<g>
						<rect x="276.68" y="386.64" class="st18" width="29.85" height="2.11"/>
						<rect x="308.28" y="386.64" class="st21" width="5.47" height="2.11"/>
						<rect x="317.61" y="386.64" class="st20" width="13.81" height="2.11"/>
					</g>
					<g>
						<rect x="276.68" y="382.72" class="st20" width="9.45" height="2.11"/>
						<rect x="288.63" y="382.72" class="st21" width="38.94" height="2.11"/>
						<rect x="330.17" y="382.72" class="st18" width="11.57" height="2.11"/>
					</g>
					<g>
						<rect x="276.68" y="378.8" class="st21" width="15.67" height="2.11"/>
						<rect x="294.22" y="378.8" class="st20" width="5.85" height="2.11"/>
						<rect x="301.81" y="378.8" class="st18" width="11.2" height="2.11"/>
					</g>
				</g>
				<g>
					<path class="st8" d="M269.18,379.71c0,0.44-0.36,0.8-0.8,0.8c-0.44,0-0.8-0.36-0.8-0.8c0-0.44,0.36-0.8,0.8-0.8
						C268.82,378.91,269.18,379.27,269.18,379.71z"/>
					<path class="st8" d="M269.18,383.8c0,0.44-0.36,0.8-0.8,0.8c-0.44,0-0.8-0.36-0.8-0.8c0-0.44,0.36-0.8,0.8-0.8
						C268.82,382.99,269.18,383.35,269.18,383.8z"/>
					<path class="st8" d="M269.18,387.88c0,0.44-0.36,0.8-0.8,0.8c-0.44,0-0.8-0.36-0.8-0.8c0-0.44,0.36-0.8,0.8-0.8
						C268.82,387.08,269.18,387.44,269.18,387.88z"/>
				</g>
				<g>
					<g>
						<g>
							<g>
								<rect x="276.68" y="401.7" class="st18" width="17.42" height="2.11"/>
								<rect x="296.34" y="401.7" class="st21" width="23.14" height="2.11"/>
								<rect x="322.21" y="401.7" class="st20" width="9.95" height="2.11"/>
							</g>
							<g>
								<rect x="276.68" y="397.91" class="st20" width="14.68" height="2.11"/>
								<rect x="293.42" y="397.91" class="st18" width="17.66" height="2.11"/>
								<rect x="313.01" y="397.91" class="st21" width="10.32" height="2.11"/>
							</g>
						</g>
						<g>
							<rect x="276.68" y="394.11" class="st18" width="5.1" height="2.11"/>
							<rect x="283.77" y="394.11" class="st21" width="14.55" height="2.11"/>
						</g>
					</g>
					<g>
						<path class="st8" d="M269.18,394.91c0,0.44-0.36,0.8-0.8,0.8c-0.44,0-0.8-0.36-0.8-0.8c0-0.44,0.36-0.8,0.8-0.8
							C268.82,394.11,269.18,394.47,269.18,394.91z"/>
						<path class="st8" d="M269.18,399c0,0.44-0.36,0.8-0.8,0.8c-0.44,0-0.8-0.36-0.8-0.8c0-0.44,0.36-0.8,0.8-0.8
							C268.82,398.19,269.18,398.56,269.18,399z"/>
						<path class="st8" d="M269.18,403.09c0,0.44-0.36,0.8-0.8,0.8c-0.44,0-0.8-0.36-0.8-0.8c0-0.44,0.36-0.8,0.8-0.8
							C268.82,402.28,269.18,402.64,269.18,403.09z"/>
					</g>
				</g>
			</g>
			<g>
				<g>
					<rect x="293.39" y="301.45" class="st5" width="152.13" height="51.66"/>
				</g>
				<g>
					<g>
						<path class="st19" d="M434.55,339.31c0,0.22-0.18,0.4-0.4,0.4h-39.96c-0.22,0-0.4-0.18-0.4-0.4l0,0c0-0.22,0.18-0.4,0.4-0.4
							h39.96C434.37,338.9,434.55,339.09,434.55,339.31L434.55,339.31z"/>
						<path class="st19" d="M434.55,342.21c0,0.22-0.18,0.4-0.4,0.4h-39.96c-0.22,0-0.4-0.18-0.4-0.4l0,0c0-0.22,0.18-0.4,0.4-0.4
							h39.96C434.37,341.81,434.55,341.99,434.55,342.21L434.55,342.21z"/>
						<path class="st19" d="M420.78,345.12c0,0.22-0.18,0.4-0.4,0.4h-26.18c-0.22,0-0.4-0.18-0.4-0.4l0,0c0-0.22,0.18-0.4,0.4-0.4
							h26.18C420.6,344.71,420.78,344.89,420.78,345.12L420.78,345.12z"/>
						<rect x="393.78" y="309.03" class="st21" width="40.66" height="26.67"/>
					</g>
					<g>
						<path class="st19" d="M389.8,339.31c0,0.22-0.18,0.4-0.4,0.4h-39.96c-0.22,0-0.4-0.18-0.4-0.4l0,0c0-0.22,0.18-0.4,0.4-0.4
							h39.96C389.62,338.9,389.8,339.09,389.8,339.31L389.8,339.31z"/>
						<path class="st19" d="M389.8,342.21c0,0.22-0.18,0.4-0.4,0.4h-39.96c-0.22,0-0.4-0.18-0.4-0.4l0,0c0-0.22,0.18-0.4,0.4-0.4
							h39.96C389.62,341.81,389.8,341.99,389.8,342.21L389.8,342.21z"/>
						<path class="st19" d="M376.02,345.12c0,0.22-0.18,0.4-0.4,0.4h-26.18c-0.22,0-0.4-0.18-0.4-0.4l0,0c0-0.22,0.18-0.4,0.4-0.4
							h26.18C375.84,344.71,376.02,344.89,376.02,345.12L376.02,345.12z"/>
						<rect x="349.03" y="309.03" class="st18" width="40.67" height="26.67"/>
					</g>
					<g>
						<g>
							<rect x="304.33" y="309.1" class="st39" width="40.66" height="26.67"/>
						</g>
						<g>
							<rect x="306.1" y="310.64" class="st20" width="37.12" height="23.59"/>
						</g>
						<path class="st39" d="M344.99,340.12c0,0.71-0.58,1.29-1.29,1.29h-38.09c-0.71,0-1.29-0.58-1.29-1.29l0,0
							c0-0.71,0.58-1.29,1.29-1.29h38.09C344.42,338.83,344.99,339.41,344.99,340.12L344.99,340.12z"/>
						<path class="st39" d="M330.48,322.43c0,3.09-2.5,5.59-5.59,5.59c-3.09,0-5.59-2.5-5.59-5.59c0-3.09,2.5-5.59,5.59-5.59
							C327.98,316.84,330.48,319.34,330.48,322.43z"/>
						<polygon class="st5" points="323.23,320.02 323.23,324.85 327.79,322.43 						"/>
					</g>
				</g>
			</g>
			<g>
				<g>
					<rect x="54.48" y="180.83" class="st5" width="152.13" height="48.85"/>
				</g>
				<polygon class="st39" points="63.76,205.26 66.55,208.11 66.55,202.4 				"/>
				<rect x="70.45" y="187.45" class="st18" width="61.53" height="35.6"/>
				<rect x="136.89" y="217.71" class="st20" width="5.48" height="5.35"/>
				<polygon class="st39" points="197.36,205.26 194.56,208.11 194.56,202.4 				"/>
				<g>
					<path class="st19" d="M185.22,195.13c0,0.22-0.18,0.4-0.4,0.4h-47.53c-0.22,0-0.4-0.18-0.4-0.4l0,0c0-0.22,0.18-0.4,0.4-0.4
						h47.53C185.04,194.72,185.22,194.9,185.22,195.13L185.22,195.13z"/>
					<path class="st19" d="M185.22,198.03c0,0.22-0.18,0.4-0.4,0.4h-47.53c-0.22,0-0.4-0.18-0.4-0.4l0,0c0-0.22,0.18-0.4,0.4-0.4
						h47.53C185.04,197.63,185.22,197.81,185.22,198.03L185.22,198.03z"/>
					<path class="st19" d="M185.22,200.93c0,0.22-0.18,0.4-0.4,0.4h-47.53c-0.22,0-0.4-0.18-0.4-0.4l0,0c0-0.22,0.18-0.4,0.4-0.4
						h47.53C185.04,200.53,185.22,200.71,185.22,200.93L185.22,200.93z"/>
					<path class="st19" d="M185.22,203.84c0,0.22-0.18,0.4-0.4,0.4h-47.53c-0.22,0-0.4-0.18-0.4-0.4l0,0c0-0.22,0.18-0.4,0.4-0.4
						h47.53C185.04,203.43,185.22,203.62,185.22,203.84L185.22,203.84z"/>
					<path class="st19" d="M185.22,206.74c0,0.22-0.18,0.4-0.4,0.4h-47.53c-0.22,0-0.4-0.18-0.4-0.4l0,0c0-0.22,0.18-0.4,0.4-0.4
						h47.53C185.04,206.34,185.22,206.52,185.22,206.74L185.22,206.74z"/>
					<path class="st19" d="M169.05,209.65c0,0.22-0.18,0.4-0.4,0.4h-31.35c-0.22,0-0.4-0.18-0.4-0.4l0,0c0-0.22,0.18-0.4,0.4-0.4
						h31.35C168.86,209.24,169.05,209.42,169.05,209.65L169.05,209.65z"/>
				</g>
				<path class="st39" d="M185.22,189.28c0,1.01-0.82,1.82-1.82,1.82h-44.69c-1.01,0-1.82-0.82-1.82-1.82l0,0
					c0-1.01,0.82-1.82,1.82-1.82h44.69C184.41,187.45,185.22,188.27,185.22,189.28L185.22,189.28z"/>
				<rect x="144.59" y="217.71" class="st21" width="26.24" height="5.35"/>
			</g>
		</g>
	</g>
</g>
<g id="DESIGNED_BY_FREEPIK_2_" class="st0">
	<g class="st4">
		<g id="XMLID_29_">
			<g id="XMLID_48_">
				<path id="XMLID_56_" class="st39" d="M260.1,465.47c-0.43,0.44-0.8,0.93-1.11,1.45l-0.47-0.24c-0.07-0.3-0.35-0.5-0.66-0.47
					c-0.33,0.04-0.57,0.34-0.53,0.67c0.04,0.33,0.34,0.57,0.67,0.53c0.07-0.01,0.13-0.03,0.18-0.05l0.45,0.23
					c-0.25,0.55-0.43,1.14-0.54,1.74l0.75,0.13c0.23-1.31,0.85-2.51,1.79-3.47L260.1,465.47z"/>
				<path id="XMLID_55_" class="st39" d="M265.59,463.16c-0.17,0-0.34,0.01-0.51,0.02l-0.07-0.63c0.19-0.15,0.3-0.39,0.27-0.64
					c-0.05-0.39-0.4-0.67-0.8-0.63c-0.39,0.05-0.67,0.4-0.63,0.8c0.03,0.25,0.19,0.46,0.4,0.56l0.07,0.62
					c-0.71,0.12-1.4,0.33-2.06,0.65l0.33,0.68c0.93-0.45,1.94-0.67,3-0.67c0.5,0,0.99,0.05,1.48,0.16l0.16-0.74
					C266.69,463.22,266.14,463.16,265.59,463.16z"/>
				<path id="XMLID_54_" class="st39" d="M272.19,465.71c0.33-0.04,0.57-0.34,0.53-0.67c-0.04-0.33-0.34-0.57-0.67-0.53
					c-0.31,0.04-0.54,0.3-0.53,0.61l-0.42,0.36c-0.42-0.43-0.89-0.81-1.41-1.14l-0.4,0.64c1.13,0.71,2.02,1.73,2.56,2.93l0.69-0.31
					c-0.25-0.55-0.57-1.07-0.94-1.55l0.4-0.35C272.06,465.72,272.13,465.72,272.19,465.71z"/>
				<path id="XMLID_53_" class="st39" d="M265.04,473.37c-0.39,0.02-0.77,0.03-1.16,0.03c-0.88,0-1.73-0.06-2.48-0.18
					c-0.39-0.06-0.85-0.15-1.27-0.29c1.05,1.86,3.07,3.12,5.39,3.12c2.86,0,5.26-1.92,5.95-4.5c-0.68,0.45-1.51,0.83-2.46,1.12
					C267.84,473.05,266.46,473.29,265.04,473.37z"/>
				<path id="XMLID_49_" class="st39" d="M265.59,464.68c-3.35,0-6.08,2.67-6.08,5.94c0,0.43,0.05,0.85,0.14,1.26
					c0.67,0.48,2.71,0.89,5.35,0.73c2.88-0.17,5.3-0.96,6.67-2.16c-0.01-0.19-0.02-0.39-0.05-0.58
					C271.24,466.91,268.65,464.68,265.59,464.68z M263.43,471.19c-1.02,0-1.85-0.83-1.85-1.85c0-1.02,0.83-1.85,1.85-1.85
					c1.02,0,1.85,0.83,1.85,1.85C265.28,470.36,264.45,471.19,263.43,471.19z M268.17,470.29c-0.75,0-1.36-0.61-1.36-1.36
					s0.61-1.36,1.36-1.36c0.75,0,1.36,0.61,1.36,1.36S268.92,470.29,268.17,470.29z"/>
			</g>
			<path id="XMLID_46_" class="st39" d="M281.6,466.55c-0.29-0.12-0.81-0.31-1.38-0.24c-0.55,0.07-0.84,0.34-0.84,1.01v0.87h2.23
				v1.72h-2.23v5.45h-1.93v-5.45h-1.34v-1.72h1.34v-0.89c0-1.68,0.9-2.78,2.57-2.78c0.64,0,1.16,0.12,1.59,0.31L281.6,466.55z"/>
			<path id="XMLID_44_" class="st39" d="M286.3,469.88c-0.18-0.03-0.36-0.05-0.53-0.05c-0.9,0-1.51,0.55-1.51,1.61v3.91h-1.93v-7.17
				h1.87v0.78c0.45-0.67,1.14-0.98,2.02-0.98c0.41,0,0.85,0.13,1.09,0.34L286.3,469.88z"/>
			<path id="XMLID_41_" class="st39" d="M293.97,471.76c0,0.22-0.01,0.49-0.04,0.65h-5.08c0.21,1.04,0.93,1.49,1.84,1.49
				c0.62,0,1.3-0.25,1.81-0.69l1.13,1.24c-0.81,0.75-1.85,1.09-3.06,1.09c-2.2,0-3.72-1.5-3.72-3.75c0-2.26,1.48-3.8,3.63-3.8
				C292.54,467.99,293.96,469.52,293.97,471.76z M288.85,471.09h3.18c-0.18-0.92-0.73-1.44-1.56-1.44
				C289.55,469.65,289.02,470.2,288.85,471.09z"/>
			<path id="XMLID_38_" class="st39" d="M301.62,471.76c0,0.22-0.02,0.49-0.04,0.65h-5.08c0.21,1.04,0.93,1.49,1.84,1.49
				c0.62,0,1.3-0.25,1.81-0.69l1.13,1.24c-0.81,0.75-1.85,1.09-3.06,1.09c-2.2,0-3.72-1.5-3.72-3.75c0-2.26,1.48-3.8,3.63-3.8
				C300.2,467.99,301.61,469.52,301.62,471.76z M296.5,471.09h3.18c-0.18-0.92-0.73-1.44-1.56-1.44
				C297.21,469.65,296.67,470.2,296.5,471.09z"/>
			<path id="XMLID_35_" class="st39" d="M309.96,471.76c0,2.15-1.5,3.77-3.47,3.77c-0.96,0-1.64-0.38-2.11-0.93v3.71h-1.92v-10.13
				h1.89v0.79c0.47-0.58,1.15-0.98,2.14-0.98C308.47,467.99,309.96,469.61,309.96,471.76z M304.29,471.76
				c0,1.13,0.75,1.98,1.84,1.98c1.14,0,1.85-0.88,1.85-1.98c0-1.1-0.71-1.98-1.85-1.98C305.03,469.79,304.29,470.63,304.29,471.76z"
				/>
			<path id="XMLID_32_" class="st39" d="M313.07,465.84c0,0.7-0.54,1.23-1.24,1.23c-0.7,0-1.23-0.53-1.23-1.23
				c0-0.7,0.53-1.24,1.23-1.24C312.53,464.59,313.07,465.14,313.07,465.84z M312.81,475.35h-1.93v-7.17h1.93V475.35z"/>
			<path id="XMLID_30_" class="st39" d="M316.03,470.74l2.7-2.55h2.37l-3.48,3.38l3.5,3.8h-2.38l-2.72-2.9v2.9h-1.93V464.7h1.93
				V470.74z"/>
		</g>
		<g>
			<path class="st39" d="M184.41,475.29v-1.05c-0.53,0.72-1.39,1.23-2.39,1.23c-1.85,0-3.15-1.41-3.15-3.71
				c0-2.26,1.29-3.72,3.15-3.72c0.95,0,1.82,0.47,2.39,1.25v-3.76h1.1v9.77H184.41z M184.41,473.37v-3.21
				c-0.4-0.62-1.24-1.14-2.12-1.14c-1.42,0-2.27,1.17-2.27,2.74c0,1.57,0.85,2.72,2.27,2.72
				C183.17,474.48,184.02,473.99,184.41,473.37z"/>
			<path class="st39" d="M186.93,471.74c0-2.05,1.46-3.71,3.49-3.71c2.14,0,3.4,1.67,3.4,3.79v0.28h-5.73
				c0.09,1.33,1.03,2.45,2.55,2.45c0.81,0,1.63-0.32,2.18-0.89l0.53,0.72c-0.7,0.7-1.65,1.08-2.81,1.08
				C188.44,475.46,186.93,473.96,186.93,471.74z M190.4,468.95c-1.51,0-2.26,1.27-2.31,2.36h4.64
				C192.72,470.25,192.01,468.95,190.4,468.95z"/>
			<path class="st39" d="M194.61,474.35l0.57-0.79c0.47,0.54,1.36,1.01,2.33,1.01c1.08,0,1.67-0.51,1.67-1.22
				c0-1.71-4.38-0.66-4.38-3.28c0-1.1,0.95-2.04,2.64-2.04c1.2,0,2.05,0.45,2.62,1.03l-0.51,0.76c-0.42-0.51-1.2-0.89-2.11-0.89
				c-0.97,0-1.57,0.48-1.57,1.11c0,1.55,4.38,0.53,4.38,3.28c0,1.19-0.95,2.14-2.78,2.14C196.31,475.46,195.32,475.11,194.61,474.35
				z"/>
			<path class="st39" d="M201.48,466.47c0-0.41,0.34-0.75,0.73-0.75c0.41,0,0.75,0.34,0.75,0.75c0,0.41-0.34,0.73-0.75,0.73
				C201.81,467.2,201.48,466.88,201.48,466.47z M201.67,475.29v-7.07h1.1v7.07H201.67z"/>
			<path class="st39" d="M204.58,477.11l0.56-0.82c0.59,0.7,1.29,0.97,2.3,0.97c1.17,0,2.27-0.57,2.27-2.12v-1.01
				c-0.51,0.72-1.38,1.26-2.37,1.26c-1.85,0-3.15-1.38-3.15-3.66c0-2.27,1.29-3.68,3.15-3.68c0.95,0,1.8,0.47,2.37,1.25v-1.07h1.1
				v6.87c0,2.34-1.64,3.08-3.37,3.08C206.24,478.16,205.42,477.93,204.58,477.11z M209.71,473.25v-3.09
				c-0.38-0.62-1.23-1.14-2.11-1.14c-1.42,0-2.27,1.13-2.27,2.7c0,1.55,0.85,2.7,2.27,2.7
				C208.48,474.41,209.33,473.87,209.71,473.25z"/>
			<path class="st39" d="M217.41,475.29v-4.63c0-1.24-0.63-1.64-1.58-1.64c-0.86,0-1.68,0.53-2.09,1.1v5.17h-1.1v-7.07h1.1v1.03
				c0.5-0.59,1.46-1.2,2.52-1.2c1.48,0,2.26,0.75,2.26,2.29v4.97H217.41z"/>
			<path class="st39" d="M219.93,471.74c0-2.05,1.46-3.71,3.49-3.71c2.14,0,3.4,1.67,3.4,3.79v0.28h-5.73
				c0.09,1.33,1.03,2.45,2.55,2.45c0.81,0,1.63-0.32,2.18-0.89l0.53,0.72c-0.7,0.7-1.66,1.08-2.81,1.08
				C221.44,475.46,219.93,473.96,219.93,471.74z M223.4,468.95c-1.51,0-2.26,1.27-2.31,2.36h4.64
				C225.72,470.25,225.02,468.95,223.4,468.95z"/>
			<path class="st39" d="M233.35,475.29v-1.05c-0.53,0.72-1.39,1.23-2.39,1.23c-1.85,0-3.15-1.41-3.15-3.71
				c0-2.26,1.29-3.72,3.15-3.72c0.95,0,1.82,0.47,2.39,1.25v-3.76h1.1v9.77H233.35z M233.35,473.37v-3.21
				c-0.4-0.62-1.25-1.14-2.12-1.14c-1.42,0-2.27,1.17-2.27,2.74c0,1.57,0.85,2.72,2.27,2.72
				C232.1,474.48,232.95,473.99,233.35,473.37z"/>
			<path class="st39" d="M239.69,475.29v-9.77h1.1v3.76c0.57-0.78,1.42-1.25,2.39-1.25c1.85,0,3.15,1.46,3.15,3.72
				c0,2.3-1.3,3.71-3.15,3.71c-1,0-1.86-0.51-2.39-1.23v1.05H239.69z M242.9,474.48c1.44,0,2.29-1.16,2.29-2.72
				c0-1.57-0.85-2.74-2.29-2.74c-0.86,0-1.73,0.53-2.11,1.14v3.21C241.17,473.99,242.04,474.48,242.9,474.48z"/>
			<path class="st39" d="M247.53,477.06c0.16,0.07,0.43,0.12,0.6,0.12c0.48,0,0.81-0.16,1.05-0.75l0.47-1.07l-2.96-7.15h1.19
				l2.36,5.8l2.34-5.8h1.2l-3.54,8.51c-0.42,1.03-1.14,1.42-2.08,1.44c-0.23,0-0.6-0.04-0.81-0.1L247.53,477.06z"/>
		</g>
	</g>
</g>
</svg>
